<svg width="20" height="19" viewBox="0 0 20 19" fill="none" xmlns="http://www.w3.org/2000/svg">
<path d="M9.20801 13.4583H10.7913V10.2917H13.958V8.70834H10.7913V5.54168H9.20801V8.70834H6.04134V10.2917H9.20801V13.4583ZM9.99967 17.4167C8.90454 17.4167 7.87537 17.2122 6.91217 16.8031C5.94898 16.3809 5.11113 15.8136 4.39863 15.1011C3.68613 14.3886 3.11877 13.5507 2.69655 12.5875C2.28752 11.6243 2.08301 10.5951 2.08301 9.50001C2.08301 8.40487 2.28752 7.3757 2.69655 6.41251C3.11877 5.44932 3.68613 4.61147 4.39863 3.89897C5.11113 3.18647 5.94898 2.6257 6.91217 2.21668C7.87537 1.79445 8.90454 1.58334 9.99967 1.58334C11.0948 1.58334 12.124 1.79445 13.0872 2.21668C14.0504 2.6257 14.8882 3.18647 15.6007 3.89897C16.3132 4.61147 16.874 5.44932 17.283 6.41251C17.7052 7.3757 17.9163 8.40487 17.9163 9.50001C17.9163 10.5951 17.7052 11.6243 17.283 12.5875C16.874 13.5507 16.3132 14.3886 15.6007 15.1011C14.8882 15.8136 14.0504 16.3809 13.0872 16.8031C12.124 17.2122 11.0948 17.4167 9.99967 17.4167ZM9.99967 15.8333C11.7677 15.8333 13.2653 15.2198 14.4924 13.9927C15.7195 12.7656 16.333 11.2681 16.333 9.50001C16.333 7.73195 15.7195 6.23438 14.4924 5.0073C13.2653 3.78022 11.7677 3.16668 9.99967 3.16668C8.23162 3.16668 6.73405 3.78022 5.50697 5.0073C4.27988 6.23438 3.66634 7.73195 3.66634 9.50001C3.66634 11.2681 4.27988 12.7656 5.50697 13.9927C6.73405 15.2198 8.23162 15.8333 9.99967 15.8333Z" fill="#0162DD"/>
</svg>
