<svg width="19" height="20" viewBox="0 0 19 20" fill="none" xmlns="http://www.w3.org/2000/svg">
<path d="M3.95898 12.375H3.16732C2.74739 12.375 2.34466 12.2082 2.04773 11.9113C1.7508 11.6144 1.58398 11.2116 1.58398 10.7917V3.66671C1.58398 3.24678 1.7508 2.84405 2.04773 2.54712C2.34466 2.25019 2.74739 2.08337 3.16732 2.08337H10.2923C10.7122 2.08337 11.115 2.25019 11.4119 2.54712C11.7088 2.84405 11.8757 3.24678 11.8757 3.66671V4.45837M8.70898 7.62504H15.834C16.7084 7.62504 17.4173 8.33392 17.4173 9.20837V16.3334C17.4173 17.2078 16.7084 17.9167 15.834 17.9167H8.70898C7.83453 17.9167 7.12565 17.2078 7.12565 16.3334V9.20837C7.12565 8.33392 7.83453 7.62504 8.70898 7.62504Z" stroke="#0162DD" stroke-width="1.5" stroke-linecap="round" stroke-linejoin="round"/>
</svg>
