<svg width="20" height="19" viewBox="0 0 20 19" fill="none" xmlns="http://www.w3.org/2000/svg">
<path d="M4.45833 15.0417H5.58646L13.325 7.30313L12.1969 6.175L4.45833 13.9135V15.0417ZM2.875 16.625V13.2604L13.325 2.83021C13.4833 2.68507 13.6582 2.57292 13.8495 2.49375C14.0408 2.41458 14.242 2.375 14.4531 2.375C14.6642 2.375 14.8688 2.41458 15.0667 2.49375C15.2646 2.57292 15.4361 2.69167 15.5813 2.85L16.6698 3.95833C16.8281 4.10347 16.9436 4.275 17.0161 4.47292C17.0887 4.67083 17.125 4.86875 17.125 5.06667C17.125 5.27778 17.0887 5.47899 17.0161 5.67031C16.9436 5.86163 16.8281 6.03646 16.6698 6.19479L6.23958 16.625H2.875ZM12.751 6.74896L12.1969 6.175L13.325 7.30313L12.751 6.74896Z" fill="#34C759"/>
</svg>
