<svg width="24" height="25" viewBox="0 0 24 25" fill="none" xmlns="http://www.w3.org/2000/svg">
<path d="M20.25 11.0001V20.0001C20.25 20.3979 20.092 20.7795 19.8107 21.0608C19.5294 21.3421 19.1478 21.5001 18.75 21.5001H5.25C4.85218 21.5001 4.47064 21.3421 4.18934 21.0608C3.90804 20.7795 3.75 20.3979 3.75 20.0001V11.0001C3.75 10.6023 3.90804 10.2207 4.18934 9.93944C4.47064 9.65814 4.85218 9.5001 5.25 9.5001H7.5C7.69891 9.5001 7.88968 9.57912 8.03033 9.71977C8.17098 9.86042 8.25 10.0512 8.25 10.2501C8.25 10.449 8.17098 10.6398 8.03033 10.7804C7.88968 10.9211 7.69891 11.0001 7.5 11.0001H5.25V20.0001H18.75V11.0001H16.5C16.3011 11.0001 16.1103 10.9211 15.9697 10.7804C15.829 10.6398 15.75 10.449 15.75 10.2501C15.75 10.0512 15.829 9.86042 15.9697 9.71977C16.1103 9.57912 16.3011 9.5001 16.5 9.5001H18.75C19.1478 9.5001 19.5294 9.65814 19.8107 9.93944C20.092 10.2207 20.25 10.6023 20.25 11.0001ZM8.78063 7.03073L11.25 4.56041V13.2501C11.25 13.449 11.329 13.6398 11.4697 13.7804C11.6103 13.9211 11.8011 14.0001 12 14.0001C12.1989 14.0001 12.3897 13.9211 12.5303 13.7804C12.671 13.6398 12.75 13.449 12.75 13.2501V4.56041L15.2194 7.03073C15.3601 7.17146 15.551 7.25052 15.75 7.25052C15.949 7.25052 16.1399 7.17146 16.2806 7.03073C16.4214 6.89 16.5004 6.69912 16.5004 6.5001C16.5004 6.30108 16.4214 6.11021 16.2806 5.96948L12.5306 2.21948C12.461 2.14974 12.3783 2.09443 12.2872 2.05668C12.1962 2.01894 12.0986 1.99951 12 1.99951C11.9014 1.99951 11.8038 2.01894 11.7128 2.05668C11.6217 2.09443 11.539 2.14974 11.4694 2.21948L7.71937 5.96948C7.57864 6.11021 7.49958 6.30108 7.49958 6.5001C7.49958 6.69912 7.57864 6.89 7.71938 7.03073C7.86011 7.17146 8.05098 7.25052 8.25 7.25052C8.44902 7.25052 8.63989 7.17146 8.78063 7.03073Z" fill="#000E45"/>
</svg>
