<svg width="20" height="18" viewBox="0 0 20 18" fill="none" xmlns="http://www.w3.org/2000/svg">
<path fill-rule="evenodd" clip-rule="evenodd" d="M8.79247 3C5.70862 3 3.20866 5.3505 3.20866 8.25C3.20866 11.1495 5.70862 13.5 8.79247 13.5C11.8763 13.5 14.3763 11.1495 14.3763 8.25C14.3763 5.3505 11.8763 3 8.79247 3ZM1.61328 8.25C1.61328 4.52208 4.82751 1.5 8.79247 1.5C12.7574 1.5 15.9717 4.52208 15.9717 8.25C15.9717 11.9779 12.7574 15 8.79247 15C4.82751 15 1.61328 11.9779 1.61328 8.25Z" fill="#C6C6D1"/>
<path fill-rule="evenodd" clip-rule="evenodd" d="M12.7346 11.9572C13.0461 11.6643 13.5512 11.6643 13.8627 11.9572L17.3327 15.2197C17.6442 15.5126 17.6442 15.9874 17.3327 16.2803C17.0211 16.5732 16.5161 16.5732 16.2046 16.2803L12.7346 13.0178C12.4231 12.7249 12.4231 12.2501 12.7346 11.9572Z" fill="#C6C6D1"/>
</svg>
