<svg width="24" height="25" viewBox="0 0 24 25" fill="none" xmlns="http://www.w3.org/2000/svg">
<path d="M10.7996 2.54291C10.4813 2.54291 10.1761 2.66934 9.95108 2.89438C9.72604 3.11942 9.59961 3.42465 9.59961 3.74291C9.59961 4.06117 9.72604 4.36639 9.95108 4.59144C10.1761 4.81648 10.4813 4.94291 10.7996 4.94291H13.1996C13.5179 4.94291 13.8231 4.81648 14.0481 4.59144C14.2732 4.36639 14.3996 4.06117 14.3996 3.74291C14.3996 3.42465 14.2732 3.11942 14.0481 2.89438C13.8231 2.66934 13.5179 2.54291 13.1996 2.54291H10.7996Z" fill="#5C61FF"/>
<path fill-rule="evenodd" clip-rule="evenodd" d="M4.7998 6.14286C4.7998 5.50634 5.05266 4.89589 5.50275 4.4458C5.95284 3.99572 6.56329 3.74286 7.1998 3.74286C7.1998 4.69764 7.57909 5.61331 8.25422 6.28844C8.92935 6.96357 9.84503 7.34286 10.7998 7.34286H13.1998C14.1546 7.34286 15.0703 6.96357 15.7454 6.28844C16.4205 5.61331 16.7998 4.69764 16.7998 3.74286C17.4363 3.74286 18.0468 3.99572 18.4969 4.4458C18.9469 4.89589 19.1998 5.50634 19.1998 6.14286V19.3429C19.1998 19.9794 18.9469 20.5898 18.4969 21.0399C18.0468 21.49 17.4363 21.7429 16.7998 21.7429H7.1998C6.56329 21.7429 5.95284 21.49 5.50275 21.0399C5.05266 20.5898 4.7998 19.9794 4.7998 19.3429V6.14286ZM8.3998 10.9429C8.08155 10.9429 7.77632 11.0693 7.55128 11.2943C7.32623 11.5194 7.1998 11.8246 7.1998 12.1429C7.1998 12.4611 7.32623 12.7663 7.55128 12.9914C7.77632 13.2164 8.08155 13.3429 8.3998 13.3429H8.41181C8.73006 13.3429 9.03529 13.2164 9.26033 12.9914C9.48538 12.7663 9.61181 12.4611 9.61181 12.1429C9.61181 11.8246 9.48538 11.5194 9.26033 11.2943C9.03529 11.0693 8.73006 10.9429 8.41181 10.9429H8.3998ZM11.9998 10.9429C11.6815 10.9429 11.3763 11.0693 11.1513 11.2943C10.9262 11.5194 10.7998 11.8246 10.7998 12.1429C10.7998 12.4611 10.9262 12.7663 11.1513 12.9914C11.3763 13.2164 11.6815 13.3429 11.9998 13.3429H15.5998C15.9181 13.3429 16.2233 13.2164 16.4483 12.9914C16.6734 12.7663 16.7998 12.4611 16.7998 12.1429C16.7998 11.8246 16.6734 11.5194 16.4483 11.2943C16.2233 11.0693 15.9181 10.9429 15.5998 10.9429H11.9998ZM8.3998 15.7429C8.08155 15.7429 7.77632 15.8693 7.55128 16.0943C7.32623 16.3194 7.1998 16.6246 7.1998 16.9429C7.1998 17.2611 7.32623 17.5663 7.55128 17.7914C7.77632 18.0164 8.08155 18.1429 8.3998 18.1429H8.41181C8.73006 18.1429 9.03529 18.0164 9.26033 17.7914C9.48538 17.5663 9.61181 17.2611 9.61181 16.9429C9.61181 16.6246 9.48538 16.3194 9.26033 16.0943C9.03529 15.8693 8.73006 15.7429 8.41181 15.7429H8.3998ZM11.9998 15.7429C11.6815 15.7429 11.3763 15.8693 11.1513 16.0943C10.9262 16.3194 10.7998 16.6246 10.7998 16.9429C10.7998 17.2611 10.9262 17.5663 11.1513 17.7914C11.3763 18.0164 11.6815 18.1429 11.9998 18.1429H15.5998C15.9181 18.1429 16.2233 18.0164 16.4483 17.7914C16.6734 17.5663 16.7998 17.2611 16.7998 16.9429C16.7998 16.6246 16.6734 16.3194 16.4483 16.0943C16.2233 15.8693 15.9181 15.7429 15.5998 15.7429H11.9998Z" fill="#5C61FF"/>
</svg>
