<svg width="24" height="24" viewBox="0 0 24 24" fill="none" xmlns="http://www.w3.org/2000/svg">
<path d="M11.9902 1.92859C6.47023 1.92859 1.99023 6.24859 1.99023 11.5714C1.99023 16.8943 6.47023 21.2143 11.9902 21.2143C17.5102 21.2143 21.9902 16.8943 21.9902 11.5714C21.9902 6.24859 17.5102 1.92859 11.9902 1.92859V1.92859ZM15.6002 8.04216C16.6702 8.04216 17.5302 8.87145 17.5302 9.90323C17.5302 10.935 16.6702 11.7643 15.6002 11.7643C14.5302 11.7643 13.6702 10.935 13.6702 9.90323C13.6602 8.87145 14.5302 8.04216 15.6002 8.04216V8.04216ZM9.60023 6.51859C10.9002 6.51859 11.9602 7.54073 11.9602 8.7943C11.9602 10.0479 10.9002 11.07 9.60023 11.07C8.30024 11.07 7.24023 10.0479 7.24023 8.7943C7.24023 7.53109 8.29024 6.51859 9.60023 6.51859ZM9.60023 15.3225V18.9386C7.20023 18.2154 5.30023 16.4314 4.46023 14.1557C5.51023 13.0757 8.13023 12.5261 9.60023 12.5261C10.1302 12.5261 10.8002 12.6032 11.5002 12.7382C9.86023 13.5772 9.60023 14.6861 9.60023 15.3225ZM11.9902 19.2857C11.7202 19.2857 11.4602 19.2761 11.2002 19.2472V15.3225C11.2002 13.9532 14.1402 13.2686 15.6002 13.2686C16.6702 13.2686 18.5202 13.6447 19.4402 14.3775C18.2702 17.2414 15.3802 19.2857 11.9902 19.2857V19.2857Z" fill="#5C61FF"/>
</svg>
