<svg width="20" height="19" viewBox="0 0 20 19" fill="none" xmlns="http://www.w3.org/2000/svg">
<path d="M5.25065 7.12492V1.58325H14.7507V7.12492M5.25065 14.2499H3.66732C3.24739 14.2499 2.84466 14.0831 2.54773 13.7862C2.2508 13.4892 2.08398 13.0865 2.08398 12.6666V8.70825C2.08398 8.28833 2.2508 7.8856 2.54773 7.58867C2.84466 7.29173 3.24739 7.12492 3.66732 7.12492H16.334C16.7539 7.12492 17.1566 7.29173 17.4536 7.58867C17.7505 7.8856 17.9173 8.28833 17.9173 8.70825V12.6666C17.9173 13.0865 17.7505 13.4892 17.4536 13.7862C17.1566 14.0831 16.7539 14.2499 16.334 14.2499H14.7507M5.25065 11.0833H14.7507V17.4166H5.25065V11.0833Z" stroke="#BF6A02" stroke-width="2" stroke-linecap="round" stroke-linejoin="round"/>
</svg>
