<svg width="20" height="19" viewBox="0 0 20 19" fill="none" xmlns="http://www.w3.org/2000/svg">
<g clip-path="url(#clip0_820_5654)">
<path d="M18.7096 3.16675V7.91675M18.7096 7.91675H13.9596M18.7096 7.91675L15.0363 4.46508C14.1855 3.61381 13.1328 2.99195 11.9767 2.65753C10.8205 2.3231 9.59843 2.28701 8.42453 2.55262C7.25063 2.81823 6.16314 3.37688 5.26355 4.17645C4.36395 4.97602 3.68156 5.99045 3.28005 7.12508M1.29297 15.8334V11.0834M1.29297 11.0834H6.04297M1.29297 11.0834L4.9663 14.5351C5.81714 15.3863 6.86976 16.0082 8.02594 16.3426C9.18212 16.6771 10.4042 16.7132 11.5781 16.4475C12.752 16.1819 13.8395 15.6233 14.7391 14.8237C15.6387 14.0241 16.321 13.0097 16.7226 11.8751" stroke="#34C759" stroke-width="2" stroke-linecap="round" stroke-linejoin="round"/>
</g>
<defs>
<clipPath id="clip0_820_5654">
<rect width="19" height="19" fill="white" transform="translate(0.5)"/>
</clipPath>
</defs>
</svg>
