<svg width="24" height="24" viewBox="0 0 24 24" fill="none" xmlns="http://www.w3.org/2000/svg">
<path fill-rule="evenodd" clip-rule="evenodd" d="M12.4703 15.308L12.2553 15.689H11.4153L11.1623 15.353C11.1473 15.33 9.66028 13.108 7.73828 11.892L7.10328 11.492L7.90528 10.224L8.53828 10.624C9.92328 11.499 11.0733 12.777 11.7513 13.63C12.8163 12.025 15.3103 8.682 19.1353 5.971C17.3483 3.709 14.5873 2.25 11.4883 2.25C6.11228 2.25 1.73828 6.624 1.73828 12C1.73828 17.376 6.11228 21.75 11.4883 21.75C16.8643 21.75 21.2383 17.376 21.2383 12C21.2383 10.263 20.7763 8.635 19.9773 7.221C15.1443 10.667 12.4993 15.257 12.4703 15.308Z" fill="#00A991"/>
</svg>
